<?xml version="1.0" encoding="utf-8"?>
<!-- Generator: Adobe Illustrator 18.1.0, SVG Export Plug-In . SVG Version: 6.00 Build 0)  -->
<!DOCTYPE svg PUBLIC "-//W3C//DTD SVG 1.1//EN" "http://www.w3.org/Graphics/SVG/1.1/DTD/svg11.dtd">
<svg version="1.1" id="Layer_1" xmlns="http://www.w3.org/2000/svg" xmlns:xlink="http://www.w3.org/1999/xlink" x="0px" y="0px"
	 viewBox="0 0 640 480" enable-background="new 0 0 640 480" xml:space="preserve">
<g>
	<path fill="#C2B450" d="M320,126c-9.1,0-18.2-4.1-24-13.3c-5-8.3-6.6-14.9-6.6-20.7c0-0.8,0-1.7-0.8-1.7h-4.1c-0.8,0-0.8,0-0.8,1.7
		c0,2.5-3.3,31.5-3.3,34c0,1.7,0.8,3.3,2.5,3.3c1.7,0,2.5,0,3.3-2.5c0.8-1.7,1.7-3.3,3.3-3.3c1.7,0,2.5,0.8,4.1,2.5
		c7.5,5.8,15.8,9.1,30.7,9.1c24,0,38.1-18.2,38.1-40.6c0-12.4-3.3-19.9-9.1-25.7c-6.6-7.5-15.8-10.8-26.5-14.1
		c-7.5-2.5-17.4-6.6-22.4-11.6c-4.1-5-5-9.9-5-16.6S305.1,8.3,320,8.3c8.3,0,14.1,2.5,19.1,7.5c6.6,6.6,9.1,14.1,11.6,19.1
		c0,0.8,0.8,1.7,1.7,0.8l3.3-0.8c0.8,0,0.8-0.8,0.8-1.7c0-1.7-3.3-27.4-3.3-29.8c0-1.7,0-3.3-1.7-3.3c-1.7,0-1.7,0-2.5,0.8l-2.5,2.5
		c-0.8,0.8-1.7,1.7-4.1,0.8C339.1,3.3,331.6,0,319.2,0c-10.8,0-18.2,2.5-25.7,9.1C284.4,15.8,281,24,281,34.8s3.3,19.9,9.1,25.7
		c9.1,8.3,20.7,13.3,26.5,14.9c19.1,7.5,26.5,12.4,26.5,29.8C343.2,120.2,329.9,126,320,126z"/>
	<path fill="#C2B450" d="M382.4,349.2c-2.5,0.3-3.5,0.6-14.3,0.6c-12.4,0-18.2-0.8-20.7-0.8c-1.7,0-1.7,0-1.7,1.7v4.1
		c0,0.8,0,1.7,0.8,1.7h5.8c4.1,0,8.3,2.5,9.9,6.6c0.8,3.3,1.7,20.7,1.7,28.2c0,9.1,0,18.2,0,34v19.1h-0.8c-3.3-3.3-31.5-39-34-41.5
		c-3.3-5-39-49.7-41.5-51.4c-0.8-0.8-2.5-1.7-4.1-1.7c-0.8,0-2.5,0-5,0c-2.5,0-5,0-8.3,0c-8.3,0-13.3,0-16.6,0c-3.3,0-5,0-5.8,0
		s-0.8,0-0.8,0.8v5c0,0.8,0,0.8,0.8,1.7h5.8c8.3,0,14.1,8.3,14.1,19.1v23.2c0,29-0.8,54.7-1.7,58c-0.8,10.8-3.3,14.9-8.3,14.9H252
		c-0.8,0-0.8,0.8-0.8,0.8v4.1c0,1.7,0,1.7,0.8,1.7c1.7,0,14.1-0.8,19.1-0.8c6.6,0,17.4,0.8,19.9,0.8c1.7,0,1.7,0,1.7-1.7v-5
		c0-0.8,0-1.7-1.7-1.7h-5c-6.6,0-9.1-4.1-9.1-13.3c0-5.8-1.7-30.7-1.7-62.2v-22.4h0.8c2.5,2.5,31.5,39,34,41.5
		c2.5,3.3,16.6,19.9,29,35.6c11.6,13.3,20.7,24.9,22.4,26.5c1.7,1.7,3.3,3.3,5.8,3.3c2.5,0,2.5-2.5,2.5-5v-48.1
		c0-18.2,1.7-48.9,2.5-61.3c0.8-6.6,2.5-9.9,5.8-9.9h5c0.8,0,0.8-0.8,0.8-1.7v-4.1C383.8,349.8,384,349,382.4,349.2z"/>
	<path fill="#C2B450" d="M180.7,227.2c2.9-0.4,3.3,1.7,3.3,1.7s0,0,0,0.8l-4.1,17.4c0,0.8-1.7,1.7-1.7,1.7s-0.8,0-1.7,0
		c-0.8,0-0.8,0-1.7,0v1.7h23.2l2.5-7.5H199c0,0.8-3.3,5.5-5.8,5.8c-0.8,0-1.7,0-4.1,0c-1.7,0-2.5,0-2.5,0c-0.8,0-0.8-0.8-0.8-1.7
		l1.7-8.3h2.5c0.8,0,0.8,0,1.7,0c0.8,0,0.8,0.8,0.8,0.8v0.8c0,0.8,0,0.8,0,1.7v0.8h1.7l2.5-10.8h-1.7c0,0.8-1.9,3.9-3.3,4.1
		c-0.8,0-0.8,0-2.5,0h-1.5l2.4-9.9h2.4c0.8,0,0.8,0,1.7,0c0.8,0,0.8,0,1.7,0c2.5,0,2.5,3.3,2.5,5h1.7l1.7-6.6h-22.4L180.7,227.2z"/>
	<path fill="#C2B450" d="M231.3,243.7c0-1.7,0-2.5-0.8-3.3c-0.8-0.8-2.3-2.1-5.8-3.3c-1.7-0.5-6.4-2-5.8-5c0-0.8,0.8-2.5,1.7-3.3
		c0.8-0.8,2.7-0.9,5.8,0c3.1,0.9,3.3,5.8,3.3,6.6h2.5l1.7-8.3h-1.7l-1.7,0.8c-0.8,0-5.8-1.7-7.5-1.7s-8,0-9.9,5
		c-0.4,1.1-0.8,2.5-0.8,3.3c0,0.8,0,2.5,0.8,3.3c1.5,2.4,8.3,3.9,10.8,5.8c0.8,0.8,0.8,1.7,0.8,2.5c0,1.7-0.8,2.5-1.7,3.3
		c-0.8,0.8-2.5,1.7-4.1,1.7c-0.8,0-3-0.6-3.8-1.5c-1.9-2-2.8-6-2.8-6.8h-1.7l-1.7,9.1h1.7l1.7-1.7c0.8,0.8,4.1,2.5,7.5,2.5
		C229.9,252.8,231,247.2,231.3,243.7z"/>
	<path fill="#C2B450" d="M246.9,228.6c1-0.6,2.6-0.6,3.4-0.6c0.8,0,0.8,0,1.7,0c0.8,0,0.8,0,1.7,0l-5,19.9c0,0.8-1.7,1.7-1.7,1.7
		s-0.8,0-1.7,0c-0.8,0-0.8,0-1.7,0v1.7h14.1v-1.7c0,0-0.8,0-1.7,0c-0.8,0-0.8,0-1.7,0c0,0-0.8,0-0.8-0.8v-0.8l0,0c0,0,0,0,0-0.8
		l4-19.2c0,0,3.4-0.1,4.3-0.1c0,0,2.4-0.1,2.5,3.6c0,0.8,0,0.8,0,1.7h1.7l1.7-7.5h-24l-1.7,7.5h1.7
		C243.7,233,244.9,229.8,246.9,228.6z"/>
	<path fill="#C2B450" d="M286,240.4l3.3-14.1v-0.8h-6.6l0,0l-0.8,1.7h0.8h0.8h0.8l0,0l0,0l0,0l0,0l-0.8,5h-0.8c-0.8,0-0.8,0-1.7,0
		c-0.8,0-3.6,0.6-5.8,2.5c-2.2,1.8-2.5,5-2.5,5.8c0,5.6,4.8,5.2,5.8,5c1-0.3,1.7-1.7,1.7-1.7l0,0l0.8,0.8c0.7,0.6,1.7,0.8,2.5,0.8
		c0.8,0,1.7,0,1.7,0c0.8,0,0.8,0,1.7-0.8l0,0l0.8-2.5h-0.8c0,0,0,0-0.8,0h-0.8c-0.8,0-0.8,0-0.8,0s0,0,0-0.8
		C286,241.2,286,241.2,286,240.4L286,240.4z M278.5,242.1C277.7,242,278.5,242.1,278.5,242.1c-1.4-0.3-1.4-2.6-0.8-4.1
		c1.7-4.6,3.3-4.1,3.3-4.1l0,0l0,0l0,0c0,0-1.6,5.8-1.7,6.6C279.3,241.2,279.4,242.1,278.5,242.1z"/>
	<path fill="#C2B450" d="M336.6,240.4c7.2-0.9,8.3-6.6,8.3-8.3c0-2.5-0.8-4.1-3.3-5.8c-2.2-1.1-5-1.7-8.3-1.7c-1.7,0-9,1-11.6,5
		c-1.4,2.1-0.8,4.1,0,5c1.5,1.8,5,0.8,5.8,0c2.9-3.5,0-6.6,0-6.6c0.3-0.4,3.8-2.7,7.5,0c0.8,0.8,0.8,1.7,0.8,3.3
		c0,2.5-1.7,4.1-2.5,5c-0.8,0.8-4.3,2.7-7.5,4.1c-4.4,2.1-9.9,5.8-9.9,6.6l-0.8,4.1h25.7l1.7-6.6h-19.9l0,0
		C323.3,243.7,328.2,241.8,336.6,240.4z"/>
	<path fill="#C2B450" d="M429.4,228c-0.8-0.8-2.5-1.7-4.1-2.5c-1.7-0.8-3.3-0.8-5.8-0.8c-2.5,0-5,0.8-7.5,1.7
		c-5.8,2.1-8,6.1-8.8,7.7c-0.8,1.7-1.1,4.7-1.1,6.3s0,2.5,0.8,4.1s1.7,2.5,2.5,3.3c0.8,0.8,2.5,1.7,4.1,2.5c1.4,0.5,3.3,0.7,5,0.8
		c7.2,0.6,10.8-2.5,12.4-4.1c1.7-1.7,3.3-3.3,4.1-5c0.8-1.7,1.7-4.1,1.7-6.6c0-1.7,0-2.5-0.8-4.1C431.7,230.3,430.8,229.4,429.4,228
		z M421.1,244.6c-0.8,1.7-1.7,3.3-2.5,4.1c-0.8,0.8-2.5,1.8-3.3,1.7c-3-0.4-4.4-2.7-4.1-6.6c0-1.7,0.1-6.4,2.5-11.6
		c0.8-1.7,2.4-5.4,6.6-5.8c3.9-0.3,4.2,3.3,4.1,4.1C424.2,239.1,422,242.9,421.1,244.6z"/>
	<path fill="#C2B450" d="M463.4,226.3h-4.1c0,0-0.7,1.6-4.1,3.3c-0.8,0.8-6.3,0.6-6.3,0.6l-1.1,1l5.8,0l-3.3,14.9
		c0,0-0.4,1.1-0.8,1.7c0,0-0.8,0.8-1.7,0.8c0,0-0.8,0-2.5,0c-0.8,0-1.7,0-2.5,0v1.7h19.9v-1.7c-0.8,0-0.8,0-2.5,0
		c-0.8,0-1.7,0-1.7-0.8C458.4,247.9,463.4,227.2,463.4,226.3z"/>
	<rect x="16.6" y="236.3" fill="#C2B450" width="128.5" height="5.8"/>
	<rect x="494.9" y="236.3" fill="#C2B450" width="128.5" height="5.8"/>
	<rect x="274.4" y="248.7" fill="#C2B450" width="11.6" height="3.3"/>
</g>
<path fill="#C2B450" d="M386.3,228c-0.8-0.8-2.5-1.7-4.1-2.5c-1.7-0.8-3.3-0.8-5.8-0.8c-2.5,0-5,0.8-7.5,1.7c-5.8,2.1-8,6.1-8.8,7.7
	c-0.8,1.7-1.1,4.7-1.1,6.3s0,2.5,0.8,4.1s1.7,2.5,2.5,3.3c0.8,0.8,2.5,1.7,4.1,2.5c1.4,0.5,3.3,0.7,5,0.8c7.2,0.6,10.8-2.5,12.4-4.1
	c1.7-1.7,3.3-3.3,4.1-5c0.8-1.7,1.7-4.1,1.7-6.6c0-1.7,0-2.5-0.8-4.1C388.6,230.3,387.7,229.4,386.3,228z M378,244.6
	c-0.8,1.7-1.7,3.3-2.5,4.1c-0.8,0.8-2.5,1.8-3.3,1.7c-3-0.4-4.4-2.7-4.1-6.6c0-1.7,0.1-6.4,2.5-11.6c0.8-1.7,2.4-5.4,6.6-5.8
	c3.9-0.3,4.2,3.3,4.1,4.1C381.1,239.1,378.8,242.9,378,244.6z"/>
<path fill="#C2B450" d="M261.1,227.2"/>
</svg>
