<?xml version="1.0" encoding="utf-8"?>
<!-- Generator: Adobe Illustrator 18.1.0, SVG Export Plug-In . SVG Version: 6.00 Build 0)  -->
<!DOCTYPE svg PUBLIC "-//W3C//DTD SVG 1.1//EN" "http://www.w3.org/Graphics/SVG/1.1/DTD/svg11.dtd">
<svg version="1.1" id="Layer_1" xmlns="http://www.w3.org/2000/svg" xmlns:xlink="http://www.w3.org/1999/xlink" x="0px" y="0px"
	 viewBox="0 0 640 480" enable-background="new 0 0 640 480" xml:space="preserve">
<g>
	<g>
		<path fill="#20344E" d="M3.5,217.7c0.3,0,0.4,0.1,0.4,0.6c0.1,2,0.7,4.6,2.9,7.4c2.2,3.2,6.1,4.6,9.9,4.6c4.1,0,9.7-2.2,9.7-7.7
			c0-6-3.2-8-11-10.6c-2.3-0.7-7.3-2.6-10.9-5.5c-2.6-2-3.8-5.4-3.8-9.3c0-3.6,1.6-6.7,5.2-9.1c3-2.2,6.2-3.2,10.6-3.2
			c4.9,0,8,1,9.4,1.6c0.7,0.3,1.2,0.1,1.6-0.1l1-0.9c0.3-0.3,0.6-0.4,1-0.4c0.4,0,0.6,0.4,0.6,1c0,1,1.2,10.2,1.2,10.9
			c0,0.3-0.1,0.4-0.4,0.4l-1.2,0.3c-0.3,0-0.6,0-0.7-0.4c-0.7-1.9-1.9-4.5-4.6-7c-1.9-1.9-4.4-2.8-7.8-2.8c-6,0-8.4,4.2-8.4,6.7
			c0,2.2,0.3,4.2,2,6c1.9,1.7,6.1,3.3,9.1,4.1c4.4,1.2,8,2.5,10.7,5.1c2.3,2.2,3.8,4.9,3.8,9.3c0,8-6,14.5-15.8,14.5
			c-6.1,0-9.7-1.2-12.8-3.2c-0.9-0.6-1.3-0.7-1.7-0.7s-0.7,0.6-1.2,1.2s-0.7,0.7-1.3,0.7s-1-0.1-1-0.9c0.1-0.7,1.2-11.3,1.3-12.2
			c0.1-0.4,0.1-0.6,0.4-0.6L3.5,217.7z"/>
		<path fill="#20344E" d="M108.2,208.6c0-2,0-18.2-0.1-18.4h-0.3c-0.6,0.9-10,20-10.9,21.8c-1.2,2-8.7,17.6-9.1,18.2
			c-0.3,0.6-0.9,1.5-1.6,1.5c-0.4,0-0.9-0.4-1.2-1.2c-0.3-0.4-10-20.8-10.5-21.8c-1.3-3-8.3-17.7-9.1-18.4
			c-0.3,0.9-0.4,17.4-0.4,18.2c0,0.7-0.1,11.9,0.4,16.1c0.3,3,1.2,5.5,3.6,5.5h3.3c0.4,0,0.6,0.3,0.6,0.4v1.6c0,0.3-0.1,0.6-0.7,0.6
			c-0.7,0-2.9-0.1-8.6-0.1c-6.4,0-9,0.1-9.7,0.1c-0.6,0-0.6-0.1-0.6-0.6v-1.6c0-0.1,0-0.4,0.4-0.4h3.5c2.6,0,3.3-2.3,3.8-4.6
			c0.7-4.6,1.2-20.6,1.2-21.8v-11.2c0-2.3-0.4-3.8-3.6-3.8h-3.3c-0.4,0-0.6-0.3-0.6-0.4v-1.7c0-0.1,0.1-0.4,0.6-0.4
			c0.7,0,2.8,0.1,10.6,0.1c3.6,0,5.7-0.1,6.5-0.1s1.5,0.3,1.7,1.2c2.8,6.1,13.2,27.9,15.4,33.3c0.7-1.2,6-11.9,8-15.8
			c1.3-2.8,8.1-16.3,8.4-17.6c0.3-0.7,1.2-0.7,2.9-0.7c10.9,0,13.5-0.1,14.4-0.1c0.3,0,0.4,0.3,0.4,0.6v1.3c0,0.4-0.1,0.7-0.6,0.7
			h-3.3c-1.9,0-2,1.2-2.2,2.6c-0.1,1.5-0.1,14.5-0.1,16.3v4.6c0,3.9,0.1,13.5,0.1,14.5c0.1,2.5,0.7,3.5,2,3.5h4.1
			c0.4,0,0.4,0.3,0.4,0.4v1.5c0,0.4,0,0.7-0.6,0.7c-0.9,0-4.5-0.1-11-0.1c-7.3,0-10.2,0.1-11.2,0.1c-0.4,0-0.6-0.3-0.6-0.6v-1.5
			c0-0.4,0.1-0.6,0.6-0.6h4.6c1.3,0,1.9-0.4,2.2-2.3c0.1-0.7,0.3-10,0.3-15.2v-4.1H108.2z"/>
		<path fill="#20344E" d="M155.5,214.2c-0.6,1.5-4.2,10.9-4.6,12.6c-0.1,0.6-0.1,1-0.1,1.3c0,0.9,1.2,1.6,2.8,1.6h3.2
			c0.6,0,0.7,0.1,0.7,0.3v1.6c0,0.4-0.1,0.7-0.6,0.7c-1,0-4.2-0.1-9.4-0.1c-5.5,0-7.1,0.1-8.3,0.1c-0.4,0-0.4-0.4-0.4-0.9v-1.3
			c0-0.4,0.1-0.6,0.4-0.6h2.2c2,0,3.5-0.9,4.8-2.9c0.7-1.2,6.1-12.9,8.4-18.4l7.3-17.1c0.1-0.7,0.6-1.9,0.1-2.2
			c-0.3-0.1-0.4-0.6-0.4-0.7c0-0.3,0.1-0.6,0.7-0.7c2.3-0.6,6.5-2.5,7.4-3.3c0.4-0.4,0.7-0.7,1.2-0.7c0.4,0,0.7,0.7,0.9,1.2
			c1.3,4.1,7.1,18.7,8.6,22.9c1.7,5.1,6.5,17.3,7.7,19c1.3,2.2,3.3,3,4.8,3h2.3c0.4,0,0.6,0.1,0.6,0.4v1.3c0,0.4-0.1,0.7-0.7,0.7
			c-1.3,0-2.9-0.1-11-0.1c-6.2,0-8.9,0.1-10.5,0.1c-0.6,0-0.7-0.4-0.7-0.7v-1.3c0-0.4,0.1-0.6,0.6-0.6h1.9c2,0,2.8-0.7,2.2-2.5
			c-0.6-2.3-3.6-10.7-4.5-13.2h-17.3V214.2z M172.2,211.6c-0.7-1.9-5.8-16.8-6.2-18.2c-0.3-0.7-0.4-1.2-0.7-1.2
			c-0.4,0-0.7,0.3-1,0.9c-0.3,0.9-7,17-7.6,18.4L172.2,211.6L172.2,211.6z"/>
		<path fill="#20344E" d="M258.9,218.7c0.1,0.1,0.1,0.3,0.1,0.7c-0.3,0.4-3.3,11.2-3.8,13.1c-1.9,0-23.5-0.1-31.1-0.1
			c-6.7,0-9.4,0.1-10.3,0.1c-0.6,0-0.6-0.1-0.6-0.6v-1.5c0-0.4,0-0.6,0.4-0.6h3c2.8,0,3.2-0.9,3.2-1.7c0-1.2,0.3-17.6,0.3-21.5v-3.8
			c0-4.2-0.1-11.2-0.3-12.2c-0.1-1.7-0.4-2.3-2.3-2.3h-3.2c-0.4,0-0.6-0.4-0.6-0.6v-1.5c0-0.4,0.1-0.6,0.6-0.6
			c0.7,0,3.5,0.1,10.3,0.1c8.1,0,11.2-0.1,11.8-0.1c0.6,0,0.7,0.3,0.7,0.6v1.5c0,0.3-0.1,0.6-0.7,0.6h-4.1c-2.2,0-2.6,0.7-2.6,2.5
			c0,0.9-0.3,10.7-0.3,15.2v5.7c0,1.2,0,15.2,0.3,18.2h4.2c4.2,0,9.6,0,12.6-0.3c4.2-0.6,9-8.4,10-10.9c0.3-0.3,0.4-0.4,0.9-0.3
			L258.9,218.7z"/>
		<path fill="#20344E" d="M321.8,218.7c0.1,0.1,0.1,0.3,0.1,0.7c-0.3,0.4-3.3,11.2-3.8,13.1c-1.9,0-23.5-0.1-31.1-0.1
			c-6.7,0-9.4,0.1-10.3,0.1c-0.6,0-0.6-0.1-0.6-0.6v-1.5c0-0.4,0-0.6,0.4-0.6h3c2.8,0,3.2-0.9,3.2-1.7c0-1.2,0.3-17.6,0.3-21.5v-3.8
			c0-4.2-0.1-11.2-0.3-12.2c-0.1-1.7-0.4-2.3-2.3-2.3h-3.2c-0.4,0-0.6-0.4-0.6-0.6v-1.5c0-0.4,0.1-0.6,0.6-0.6
			c0.7,0,3.5,0.1,10.3,0.1c8.1,0,11.2-0.1,11.8-0.1s0.7,0.3,0.7,0.6v1.5c0,0.3-0.1,0.6-0.7,0.6h-4.1c-2.2,0-2.6,0.7-2.6,2.5
			c0,0.9-0.3,10.7-0.3,15.2v5.7c0,1.2,0,15.2,0.3,18.2h4.2c4.2,0,9.6,0,12.6-0.3c4.2-0.6,9-8.4,10-10.9c0.3-0.3,0.4-0.4,0.9-0.3
			L321.8,218.7z"/>
		<path fill="#20344E" d="M336.5,190.7c-0.7-1.9-1.9-2.3-3.2-2.3h-2c-0.3,0-0.4-0.1-0.4-0.4v-1.7c0-0.3,0.3-0.4,0.6-0.4
			c0.6,0,2.9,0.1,9.6,0.1c5.4,0,8.6-0.1,9.3-0.1c0.4,0,0.6,0.1,0.6,0.4v1.6c0,0.3-0.1,0.6-0.7,0.6h-1.5c-1.5,0-2.3,0.9-1.7,2.3
			l11,30.2h0.1c0.6-1.3,10.6-25.4,10.7-27.9c0-1.2-0.6-2.6-1.3-3.5c-0.6-0.7-1.6-1.2-2.6-1.2h-1.6c-0.3,0-0.6-0.1-0.6-0.4v-1.6
			c0-0.3,0.1-0.6,0.6-0.6c0.6,0,3.3,0.1,9.7,0.1c6.2,0,9.1-0.1,9.9-0.1c0.4,0,0.6,0.1,0.6,0.6v1.5c0,0.3-0.1,0.6-0.6,0.6h-2.6
			c-1.5,0-2,1.5-1.6,2.6l10.7,30.2h0.3c2.2-5.8,10.7-27.3,10.7-30.9c0-0.9-0.7-1.9-2.6-1.9h-2c-0.4,0-0.6-0.1-0.6-0.6v-1.6
			c0-0.3,0.1-0.6,0.6-0.6c0.7,0,3.3,0.1,8,0.1c4.2,0,6.4-0.1,7-0.1c0.3,0,0.4,0.1,0.4,0.3v1.7c0,0.3-0.1,0.6-0.6,0.6h-1.6
			c-1.2,0-2.6,0.7-3.3,2.2c-0.7,1.5-16,38-17.6,41.4c-0.3,0.7-0.9,1.7-1.9,1.7c-1,0-1.6-0.7-1.9-1.5l-13.5-34.4h-0.3
			c-0.7,1.9-13.9,33.8-14.2,34.6s-1,1.3-1.9,1.3c-0.7,0-1.3-0.4-1.5-1L336.5,190.7z"/>
		<path fill="#20344E" d="M473,190.3c5.7,3.9,10.2,10.5,10.2,19.3c0,4.8-1.5,9.9-5.5,14.4c-4.8,5.2-11.2,9.3-22.5,9.3
			c-4.5,0-10.9-1.2-16.8-4.4c-5.4-2.8-10.9-9.9-10.9-19.3c0-3.9,1.3-10.2,6.8-16.3c6.5-7.1,14.7-8.4,21.1-8.4
			C460.9,184.9,466.9,185.9,473,190.3z M444.2,191.6c-4.5,3.9-6.7,10.6-6.7,15.8c0,17,11.9,23.1,18.3,23.1
			c15.1,0,17.6-14.7,17.6-20.2c0-14.2-11-22.4-18.3-22.4C453.7,187.8,449.3,187.2,444.2,191.6z"/>
		<path fill="#20344E" d="M552.3,190.3c5.7,3.9,10.2,10.5,10.2,19.3c0,4.8-1.5,9.9-5.5,14.4c-4.8,5.2-11.2,9.3-22.5,9.3
			c-4.5,0-10.9-1.2-16.8-4.4c-5.4-2.8-10.9-9.9-10.9-19.3c0-3.9,1.3-10.2,6.8-16.3c6.5-7.1,14.7-8.4,21.1-8.4
			C540.2,184.9,546.2,185.9,552.3,190.3z M523.5,191.6c-4.5,3.9-6.7,10.6-6.7,15.8c0,17,11.9,23.1,18.3,23.1
			c15.1,0,17.6-14.7,17.6-20.2c0-14.2-11-22.4-18.3-22.4C533,187.8,528.6,187.2,523.5,191.6z"/>
		<path fill="#20344E" d="M591.2,202.2c0-1.7-0.3-11-0.4-11.9c-0.1-1.6-1.2-1.9-2.8-1.9h-4.1c-0.3,0-0.6-0.1-0.6-0.4v-1.7
			c0-0.3,0.3-0.4,0.7-0.4c2.2,0,6.1,0.1,11.3,0.1c3.8,0,7.6-0.1,11.2-0.1c10,0,18.2,0.9,25,6c4.9,3.5,8.4,9,8.4,16.6
			c0,7.4-2.3,12.5-7.3,17.1c-7.3,7-19,7-24.1,7c-2.9,0-10.5-0.1-14.2-0.1c-6.5,0-9.6,0.1-10.6,0.1c-0.3,0-0.4-0.1-0.4-0.6v-1.6
			c0-0.3,0.1-0.4,0.6-0.4h4.4c1.5,0,2.2-0.6,2.5-1.6c0.3-1.3,0.6-16.1,0.6-21.1v-4.9H591.2z M600.6,208.6c0,0.7,0.1,11.9,0.1,16
			c0,1.3,0.3,2.3,1.3,3.6c0.9,1.3,3.8,1.7,6.5,1.7c5.8,0,11.8-2.3,15.5-6.5c3.2-3.5,5.4-8.9,5.4-15c0-5.2-2.6-10.9-6-14.2
			c-4.1-3.8-10.6-6.1-16.7-6.1c-1.6,0-3.6,0-4.8,0.7c-1,0.6-1.3,1.6-1.3,2.9c-0.1,2.8-0.1,11.2-0.1,12.3L600.6,208.6L600.6,208.6z"
			/>
		<path fill="#20344E" d="M156,289.9c0,11.2,0.6,20.3,0.7,22.4c0.1,3.3,1,4.8,3.8,4.8h1.9c0.6,0,0.6,0.3,0.6,0.6v1.5
			c0,0.4,0,0.6-0.6,0.6c-0.7,0-5.2-0.1-8.1-0.1c-1.9,0-7,0.1-7.8,0.1c-0.3,0-0.4-0.1-0.4-0.6v-1.6c0-0.1,0.1-0.4,0.4-0.4h2.6
			c1.9,0,3-1.5,3.3-5.4c0.1-1.2,0.6-10.3,0.6-20.8v-8.3c0-3.9-2.6-7-5.8-7h-2.3c-0.3,0-0.4-0.1-0.4-0.4v-1.7c0-0.3,0.1-0.4,0.4-0.4
			c0.4,0,1,0,2.3,0.1c1.3,0,3.3,0,6.7,0c1.3,0,2.3,0,3.3-0.1c1,0,1.6,0,2,0c0.9,0,1.3,0.1,1.7,0.6c0.7,0.7,15.4,16.7,16.8,18.6
			c1,1,12.8,13.8,13.9,15.1h0.3v-6.8c0-5.8,0-9-0.1-12.3c-0.1-2.5-0.4-8.9-0.9-10c-0.6-1.6-2.2-2.5-3.9-2.5h-2.3
			c-0.4,0-0.4-0.3-0.4-0.6v-1.5c0-0.4,0-0.6,0.6-0.6c0.9,0,3.3,0.1,8.4,0.1c4.5,0,6.2-0.1,7.1-0.1c0.6,0,0.7,0.3,0.7,0.4v1.5
			c0,0.4-0.1,0.7-0.4,0.7h-2c-1.5,0-2.2,1-2.5,3.5c-0.4,4.5-1.2,15.4-1.2,22.1v17.3c0,0.9,0,1.9-0.9,1.9c-1,0-1.9-0.6-2.6-1
			c-0.6-0.7-4.6-4.6-9.3-9.6c-5.2-5.7-11-11.8-11.9-12.8c-1-0.9-13.1-13.9-13.9-15H156L156,289.9L156,289.9z"/>
		<path fill="#20344E" d="M238,298.3c0,0.7,0.1,15.7,0.1,16.4c0,2,1.2,2.3,3,2.3h3.2c0.3,0,0.6,0.1,0.6,0.4v1.6
			c0,0.4-0.3,0.6-0.7,0.6c-0.9,0-3.9-0.1-10.9-0.1c-7.6,0-10.7,0.1-11.5,0.1c-0.4,0-0.6-0.1-0.6-0.4v-1.7c0-0.3,0.1-0.4,0.6-0.4h3
			c1.5,0,3.2-0.1,3.5-1.9c0.1-0.9,0.3-15.1,0.3-18.6v-4.6c0-1.6-0.1-13.4-0.3-14.2c-0.3-1.6-1-2.2-3-2.2h-3.9
			c-0.4,0-0.6-0.1-0.6-0.4v-1.7c0-0.3,0.1-0.4,0.4-0.4c0.9,0,4.8,0.1,12.1,0.1c7.1,0,9.6-0.1,10.6-0.1c0.4,0,0.6,0.3,0.6,0.6v1.5
			c0,0.4-0.3,0.6-0.6,0.6h-2.9c-1.6,0-2.9,0.6-2.9,1.7c0,0.7-0.1,15.1-0.1,15.8L238,298.3L238,298.3z"/>
		<path fill="#20344E" d="M314.6,308.9c0.3,0.1,0.3,0.4,0.1,0.7c-4.5,5.7-11.6,11-22.4,11c-9.6,0-15-2.5-19.6-6.1
			c-5.5-4.4-8.1-11.9-8.1-17.7c0-6.4,2.3-12.5,7.7-17.6c4.1-3.8,10.5-7,19.5-7c6.8,0,12.5,1.9,15.1,3.2c1,0.6,1.3,0.6,1.5,0l0.6-1.7
			c0.1-0.4,0.3-0.4,1.2-0.4c0.9,0,1,0.1,1,1c0,1.2,1.5,11.6,1.7,13.7c0.1,0.4,0,0.6-0.3,0.7l-1.5,0.4c-0.4,0.1-0.6-0.1-0.9-0.7
			c-0.9-2.3-2.8-5.7-5.8-8.6c-3.3-2.8-7.1-4.8-13.1-4.8c-11.9,0-16.8,9.4-16.8,18.9c0,4.1,1.3,11.8,6.8,17c4.9,4.6,9.3,5.1,12.9,5.1
			c8.3,0,14.7-3.6,17.9-7.6c0.4-0.4,0.7-0.7,0.9-0.4L314.6,308.9z"/>
		<path fill="#20344E" d="M348.7,301.8c0,3.3,0.1,12.8,0.3,13.8c0.1,0.9,0.9,1.5,1.7,1.5h2.9c0.3,0,0.6,0.1,0.6,0.3v1.7
			c0,0.3-0.1,0.6-0.4,0.6c-0.9,0-3.2-0.1-9.6-0.1c-6.4,0-8.9,0.1-9.6,0.1c-0.3,0-0.4-0.1-0.4-0.4v-1.7c0-0.3,0.1-0.4,0.4-0.4h2.8
			c1.3,0,1.9-0.6,2-1.3c0.1-0.6,0.3-12.5,0.3-20.5v-3.8c0-1.2-0.1-13.8-0.1-14.4c0-0.7-0.4-1.6-2.2-1.6h-2.2c-0.4,0-0.6-0.1-0.6-0.4
			v-1.7c0-0.3,0.1-0.4,0.6-0.4c0.9,0,3.2,0.1,9.6,0.1c5.8,0,8.3-0.1,9.3-0.1c0.4,0,0.6,0.1,0.6,0.4v1.6c0,0.4-0.1,0.6-0.6,0.6h-2.3
			c-1.5,0-2.2,0.4-2.2,1.9c0,1-0.3,11.2-0.3,14.4v2.9h1.3c0.9,0,1.6-0.3,2.6-0.9c1.5-1,14.4-15.2,15.2-16.3c1-1.3,0.1-2-1.2-2h-1.2
			c-0.3,0-0.4-0.1-0.4-0.4v-1.6c0-0.4,0.1-0.6,0.4-0.6c0.9,0,3.9,0.1,8.9,0.1c3,0,5.5-0.1,6.4-0.1c0.4,0,0.6,0.1,0.6,0.4v1.6
			c0,0.4-0.3,0.6-0.6,0.6h-1.5c-1,0-2.8,0.3-4.2,1.2c-3.5,2-14.1,12.6-16.8,16c3,3.3,18.3,20.5,20.5,22.8c1.3,1.5,3.3,1.6,4.5,1.6
			h1.6c0.4,0,0.6,0.3,0.6,0.4v1.6c0,0.4-0.1,0.6-0.6,0.6c-0.7,0-3.5-0.1-10.3-0.1c-6.2,0-9.1,0.1-10.2,0.1c-0.3,0-0.4-0.1-0.4-0.6
			v-1.5c0-0.3,0.1-0.4,0.4-0.4h1c1.3,0,1.5-1.2,1.2-1.7c-0.7-1.3-12.9-16.6-14.1-17.6c-0.7-0.7-1.6-0.9-2.6-0.9h-1.3v4.8H348.7z"/>
		<path fill="#20344E" d="M447.3,306c0.1,0.1,0.1,0.3,0.1,0.7c-0.3,0.4-3.3,11.2-3.8,13.1c-1.9,0-23.5-0.1-31.1-0.1
			c-6.7,0-9.4,0.1-10.3,0.1c-0.6,0-0.6-0.1-0.6-0.6v-1.5c0-0.4,0-0.6,0.4-0.6h3c2.8,0,3.2-0.9,3.2-1.7c0-1.2,0.3-17.6,0.3-21.5v-3.6
			c0-4.2-0.1-11.2-0.3-12.2c-0.1-1.7-0.4-2.3-2.3-2.3h-3.2c-0.4,0-0.6-0.4-0.6-0.6v-1.5c0-0.4,0.1-0.6,0.6-0.6
			c0.7,0,3.5,0.1,10.3,0.1c8.1,0,11.2-0.1,11.8-0.1c0.6,0,0.7,0.3,0.7,0.6v1.5c0,0.3-0.1,0.6-0.7,0.6h-4.1c-2.2,0-2.6,0.7-2.6,2.5
			c0,0.9-0.3,10.7-0.3,15.2v5.7c0,1.2,0,15.2,0.3,18.2h4.2c4.2,0,9.6,0,12.6-0.3c4.2-0.6,9-8.4,10-10.9c0.3-0.3,0.4-0.4,0.9-0.3
			L447.3,306z"/>
		<path fill="#20344E" d="M479.8,300.5c0.1,3.5,0.3,9.9,0.3,11.2c0,3.3,1.3,4.6,3,5.1c1.2,0.3,3,0.6,5.8,0.6c1.3,0,4.8-0.1,6.2-0.3
			c1.3-0.1,4.2-0.7,6.1-2.2c1.3-1,5.5-5.4,7-7c0.3-0.3,0.6-0.4,0.9-0.3l1.2,0.7c0.3,0.1,0.3,0.3,0.1,0.7l-3.6,9.9
			c-0.3,0.6-0.7,1-1.6,1c-0.4,0-2,0-6.7-0.1c-4.6,0-12.5,0-25,0c-2.8,0-4.8,0-6.4,0c-1.5,0-2.6,0.1-3.2,0.1c-0.4,0-0.6-0.1-0.6-0.6
			v-1.7c0-0.4,0.1-0.6,0.7-0.6h2.6c3.5,0,3.8-0.4,3.8-2.8v-21.9c0-5.4-0.1-13.5-0.3-14.4c-0.3-1.7-1-2.3-3.3-2.3H464
			c-0.3,0-0.4-0.1-0.4-0.4v-1.7c0-0.3,0.1-0.4,0.4-0.4c1.6,0,4.4,0.3,10.5,0.1h2c3.3,0,20.5-0.1,23.8-0.1c1.2,0,2.6,0,3,0
			c0.4,0,0.6,0.1,0.6,0.4c0.3,0.9,3.2,9.7,3.5,10.5c0.1,0.4,0.1,0.6-0.3,0.7l-1.3,0.6c-0.3,0-0.4,0-0.7-0.3
			c-0.3-0.4-6.4-6.4-8.3-7.3c-1.6-0.7-3.6-1.6-5.7-1.7l-11.3-0.3l-0.1,18.9c2.2,0,7.7-0.1,8.6-0.3c1.6-0.3,2.6-0.7,3.5-2.3
			c0.4-0.9,1.2-2.5,1.2-3.6c0-0.4,0.3-0.6,0.6-0.6l1.9,0.1c0.3,0,0.6,0.1,0.4,0.6c-0.1,1-0.1,5.4-0.1,7.1c0,2.6,0.3,5.8,0.4,7.3
			c0,0.3-0.1,0.4-0.6,0.4l-1.6,0.3c-0.3,0-0.4,0-0.6-0.4c-0.3-1-0.9-2.5-1.2-3.3c-0.7-1.3-2-2.2-3.8-2.3c-2.8-0.3-6.2-0.4-8.7-0.4
			L479.8,300.5z"/>
		<path fill="#20344E" d="M91.1,378l8.9-16.7c0.1-0.1,0.3-0.3,0.4-0.3h0.3c0.3,0,0.4,0.1,0.4,0.3l8.7,16.7c0.1,0.3,0,0.6-0.4,0.6
			h-2.5c-0.4,0-0.6-0.1-0.9-0.4l-1.5-2.8H96l-1.5,2.8c-0.1,0.3-0.4,0.4-0.9,0.4h-2.2C91.1,378.8,90.9,378.3,91.1,378z M103.3,372.8
			l-2.9-5.5h-0.1l-2.8,5.5H103.3z"/>
		<path fill="#20344E" d="M146.7,361.8c0-0.3,0.3-0.4,0.6-0.4h8.1c3.5,0,6.2,2.3,6.2,5.4c0,2.3-1.7,4.2-4.2,5.1l3.9,6.4
			c0.1,0.3,0,0.7-0.4,0.7h-3c-0.3,0-0.4-0.1-0.4-0.3l-3.8-6.5h-3.2v6.4c0,0.3-0.3,0.4-0.6,0.4h-2.6c-0.3,0-0.6-0.3-0.6-0.4
			L146.7,361.8L146.7,361.8z M155.1,369.2c1.5,0,2.8-1.2,2.8-2.5c0-1.3-1.3-2.5-2.8-2.5h-4.6v4.9H155.1z"/>
		<path fill="#20344E" d="M208,361c2.9,0,4.9,0.7,6.8,2.3c0.3,0.1,0.3,0.4,0,0.7l-1.7,1.6c-0.1,0.1-0.4,0.1-0.7,0
			c-1.2-0.9-2.8-1.5-4.4-1.5c-3.6,0-6.4,2.6-6.4,5.8c0,3,2.8,5.8,6.4,5.8c1.7,0,3.2-0.6,4.4-1.5c0.3-0.1,0.6-0.1,0.7,0l1.7,1.6
			c0.3,0.1,0.1,0.4,0,0.7c-1.9,1.6-4.4,2.5-7,2.5c-5.7,0-10.3-3.9-10.3-9C197.8,365.1,202.3,361,208,361z"/>
		<path fill="#20344E" d="M250.8,361.8c0-0.3,0.3-0.4,0.6-0.4h2.6c0.3,0,0.6,0.3,0.6,0.4v6.5h9.3v-6.5c0-0.3,0.3-0.4,0.6-0.4h2.6
			c0.3,0,0.6,0.3,0.6,0.4v16.6c0,0.3-0.3,0.4-0.6,0.4h-2.8c-0.3,0-0.6-0.3-0.6-0.4v-7h-9.3v6.8c0,0.3-0.3,0.4-0.6,0.4h-2.6
			c-0.3,0-0.6-0.3-0.6-0.4v-16.4H250.8z"/>
		<path fill="#20344E" d="M306.9,361.8c0-0.3,0.3-0.4,0.6-0.4h2.6c0.3,0,0.6,0.3,0.6,0.4v16.6c0,0.3-0.3,0.4-0.6,0.4h-2.6
			c-0.3,0-0.6-0.3-0.6-0.4V361.8z"/>
		<path fill="#20344E" d="M352.7,364.2h-4.4c-0.3,0-0.6-0.3-0.6-0.4v-2c0-0.3,0.3-0.4,0.6-0.4h12.5c0.3,0,0.6,0.3,0.6,0.4v2
			c0,0.3-0.3,0.4-0.6,0.4h-4.4v13.9c0,0.3-0.3,0.4-0.6,0.4h-2.6c-0.3,0-0.6-0.3-0.6-0.4L352.7,364.2L352.7,364.2z"/>
		<path fill="#20344E" d="M398.5,361.8c0-0.3,0.3-0.4,0.6-0.4h11.6c0.3,0,0.6,0.3,0.6,0.4v2c0,0.3-0.3,0.4-0.6,0.4h-8.4v4.1h7
			c0.3,0,0.6,0.3,0.6,0.4v2c0,0.3-0.3,0.4-0.6,0.4h-7v4.4h8.4c0.3,0,0.6,0.3,0.6,0.4v2c0,0.3-0.3,0.4-0.6,0.4h-11.6
			c-0.3,0-0.6-0.3-0.6-0.4V361.8z"/>
		<path fill="#20344E" d="M457.6,361c2.9,0,4.9,0.7,6.8,2.3c0.3,0.1,0.3,0.4,0,0.7l-1.7,1.6c-0.1,0.1-0.4,0.1-0.7,0
			c-1.2-0.9-2.8-1.5-4.4-1.5c-3.6,0-6.4,2.6-6.4,5.8c0,3,2.8,5.8,6.4,5.8c1.7,0,3.2-0.6,4.4-1.5c0.3-0.1,0.6-0.1,0.7,0l1.7,1.6
			c0.3,0.1,0.1,0.4,0,0.7c-1.9,1.6-4.4,2.5-7,2.5c-5.7,0-10.3-3.9-10.3-9C447.3,365.1,451.9,361,457.6,361z"/>
		<path fill="#20344E" d="M505.1,364.2h-4.4c-0.3,0-0.6-0.3-0.6-0.4v-2c0-0.3,0.3-0.4,0.6-0.4h12.5c0.3,0,0.6,0.3,0.6,0.4v2
			c0,0.3-0.3,0.4-0.6,0.4h-4.4v13.9c0,0.3-0.3,0.4-0.6,0.4h-2.6c-0.3,0-0.6-0.3-0.6-0.4L505.1,364.2L505.1,364.2z"/>
		<path fill="#20344E" d="M549.8,376.3l1-1.6c0.3-0.3,0.7-0.3,1-0.1c0.1,0.1,2.5,1.6,4.4,1.6c1.5,0,2.6-0.9,2.6-1.9
			c0-1.3-1.2-2.2-3.6-3c-2.6-1-5.4-2.5-5.4-5.4c0-2.2,1.9-4.8,6.4-4.8c2.9,0,5.1,1.3,5.7,1.6c0.3,0.1,0.4,0.6,0.1,0.9l-1,1.5
			c-0.3,0.3-0.7,0.4-1,0.3s-2.3-1.3-3.9-1.3s-2.5,1-2.5,1.7c0,1.2,1,2,3.3,2.8c2.8,1,6,2.5,6,5.7c0,2.6-2.5,4.9-6.5,4.9
			c-3.6,0-5.7-1.5-6.2-1.9C549.7,376.7,549.5,376.7,549.8,376.3z"/>
	</g>
	<g>
		<path fill="#20344E" d="M190.5,78.9c-0.1-0.1-0.1-0.4,0.1-0.4l7-4.5c0.1-0.1,0.4-0.1,0.6,0l1,1.2c0.1,0.1,0.1,0.4-0.1,0.4
			l-5.1,3.3l2,2.5l4.2-2.8c0.1-0.1,0.4-0.1,0.6,0l1,1.3c0.1,0.1,0.1,0.4-0.1,0.4l-4.2,2.8l2.2,2.6l5.1-3.3c0.1-0.1,0.4-0.1,0.6,0
			l1,1.2c0.1,0.1,0.1,0.4-0.1,0.4l-7,4.5c-0.1,0.1-0.4,0.1-0.6,0L190.5,78.9z"/>
		<path fill="#20344E" d="M219.9,74.4v-1.3c0-0.3,0.3-0.4,0.6-0.4c0.1,0,2.3,0.1,3.5-0.4c1-0.4,1.3-1.5,0.9-2
			c-0.6-0.9-1.7-1-3.6-0.7c-2.2,0.3-4.5,0.1-5.8-1.7c-0.9-1.5-0.7-3.8,2.2-5.2c1.9-0.9,3.9-0.9,4.4-0.7c0.3,0,0.4,0.3,0.4,0.4
			l-0.1,1.3c0,0.3-0.1,0.6-0.6,0.6c-0.1,0-2.2-0.1-3.2,0.4c-1,0.6-1.3,1.5-0.9,1.9c0.4,0.7,1.5,0.9,3.3,0.7c2.2-0.3,4.9-0.3,6.2,1.7
			c1,1.7,0.4,4.1-2.2,5.4c-2.3,1.2-4.4,0.9-4.9,0.7C220,74.8,219.9,74.8,219.9,74.4z"/>
		<path fill="#20344E" d="M241.9,54.6l-3,1.2c-0.1,0.1-0.4,0-0.6-0.1l-0.7-1.5c-0.1-0.1,0-0.4,0.3-0.4l8.6-3c0.3-0.1,0.4,0,0.6,0.1
			l0.7,1.5c0.1,0.1,0,0.4-0.3,0.4l-3,1.2l4.6,9.7c0.1,0.1,0,0.4-0.3,0.4l-1.9,0.7c-0.1,0.1-0.4,0-0.6-0.1L241.9,54.6z"/>
		<path fill="#20344E" d="M265.9,58l2.6-13.7c0-0.1,0.1-0.3,0.3-0.3h0.1c0.1,0,0.3,0,0.4,0.1l10.2,10.6c0.1,0.1,0.1,0.4-0.1,0.6
			l-1.7,0.4c-0.3,0.1-0.4,0-0.7-0.3l-1.6-1.7l-6.1,1.5l-0.4,2.2c0,0.1-0.1,0.4-0.4,0.4l-1.7,0.4C266,58.4,265.8,58.1,265.9,58z
			 M273.6,51.9l-3.3-3.5l0,0l-0.7,4.5L273.6,51.9z"/>
		<path fill="#20344E" d="M293.9,39.8c0-0.1,0.1-0.4,0.3-0.4l4.8-0.6c2.5-0.3,4.6,1,4.9,2.9c0.1,1.5-1,2.8-1.9,3.2
			c1.2,0.1,2.9,1,3.2,2.8c0.3,2-1.5,3.8-4.1,4.1l-5.1,0.6c-0.3,0-0.4-0.1-0.4-0.3L293.9,39.8z M299.6,44.3c1-0.1,1.7-1,1.6-1.9
			c-0.1-0.9-1-1.5-2-1.3l-2.3,0.3l0.4,3.2L299.6,44.3z M300.8,49.7c1-0.1,1.7-0.9,1.6-1.9c-0.1-0.9-1.3-1.5-2.5-1.3l-2.2,0.1
			l0.4,3.3L300.8,49.7z"/>
		<path fill="#20344E" d="M323.1,37.8c0-0.1,0.1-0.3,0.4-0.3h2c0.1,0,0.4,0.1,0.4,0.3l0.1,10.5l5.5-0.1c0.3,0,0.4,0.1,0.4,0.3V50
			c0,0.1-0.1,0.3-0.4,0.3l-8,0.1c-0.3,0-0.4-0.1-0.4-0.3L323.1,37.8z"/>
		<path fill="#20344E" d="M350.3,38.6c0-0.1,0.3-0.3,0.4-0.3l2,0.1c0.1,0,0.4,0.1,0.3,0.4l-1.6,12.3c0,0.1-0.3,0.3-0.4,0.3l-2-0.1
			c-0.1,0-0.4-0.1-0.3-0.4L350.3,38.6z"/>
		<path fill="#20344E" d="M369.3,52.2l1-1c0.3-0.3,0.6-0.1,0.7,0c0.1,0.1,1.5,1.5,2.9,1.7c1,0.1,2-0.3,2.3-1c0.3-0.9-0.4-1.7-2-2.8
			c-1.7-1-3.5-2.6-2.9-4.6c0.4-1.6,2.3-3.2,5.7-2.6c2.2,0.4,3.5,1.7,3.9,2c0.1,0.1,0.1,0.4,0,0.6l-1,0.9c-0.3,0.1-0.6,0.3-0.7,0.1
			c-0.1-0.1-1.5-1.3-2.6-1.6c-1.2-0.3-2,0.3-2.2,0.9c-0.3,0.9,0.4,1.6,1.9,2.5c1.9,1.2,3.9,2.6,3.3,4.9c-0.4,1.9-2.8,3.2-5.8,2.6
			c-2.6-0.6-3.9-1.9-4.2-2.3C369,52.6,369,52.4,369.3,52.2z"/>
		<path fill="#20344E" d="M399.9,48.2c0.1-0.1,0.3-0.3,0.6-0.1l1.9,0.6c0.3,0.1,0.3,0.3,0.3,0.4l-2,4.6l6.5,2.2l2-4.6
			c0.1-0.1,0.3-0.3,0.6-0.1l1.9,0.6c0.1,0,0.3,0.3,0.3,0.4l-4.9,11.6c-0.1,0.1-0.3,0.3-0.6,0.1l-1.9-0.6c-0.3-0.1-0.3-0.3-0.3-0.4
			l2-4.8l-6.5-2.2l-2,4.8c-0.1,0.1-0.3,0.3-0.6,0.1l-1.9-0.6c-0.1,0-0.3-0.3-0.3-0.4L399.9,48.2z"/>
		<path fill="#20344E" d="M430.2,59.6c0.1-0.1,0.3-0.3,0.6-0.1l7.7,3.6c0.1,0.1,0.3,0.3,0.1,0.4l-0.9,1.3c-0.1,0.1-0.3,0.3-0.6,0.1
			l-5.5-2.6l-1.7,2.8l4.6,2.2c0.1,0.1,0.3,0.3,0.1,0.4l-0.9,1.3c-0.1,0.1-0.4,0.3-0.6,0.1l-4.6-2.2l-1.7,2.9l5.5,2.6
			c0.1,0.1,0.3,0.3,0.1,0.4l-0.9,1.3c-0.1,0.1-0.3,0.3-0.6,0.1l-7.7-3.6c-0.1-0.1-0.3-0.3-0.1-0.4L430.2,59.6z"/>
		<path fill="#20344E" d="M455,72.8c0.1-0.1,0.4-0.1,0.6-0.1l4.1,2.6c3.3,2.2,4.1,6.2,1.6,9.1c-2.5,2.9-7.1,3.5-10.5,1.3l-4.1-2.6
			c-0.1-0.1-0.1-0.3,0-0.4L455,72.8z M452.1,83.8c2.2,1.5,5.1,1,6.8-0.9c1.6-1.9,1.3-4.5-1-6l-1.9-1.3l-5.8,6.8L452.1,83.8z"/>
	</g>
	<g>
		<g>
			<path fill="#20344E" d="M312.8,435.7c0,0.4-0.1,1-0.4,1.3c-0.3,0.4-0.6,0.7-1.2,1c-0.4,0.3-1,0.4-1.6,0.6s-1.3,0.1-2,0.1h-1
				l-0.6,2.3v0.1v0.1c0,0.1,0.1,0.3,0.3,0.4c0.1,0.1,0.4,0.1,1,0.1l-0.1,0.4h-5.4l0.1-0.4c0.1,0,0.3,0,0.6,0c0.3,0,0.4,0,0.6-0.1
				c0.1,0,0.3-0.1,0.4-0.3s0.1-0.3,0.1-0.4l1.6-6.1c0-0.1,0-0.1,0-0.1v-0.1c0-0.1-0.1-0.3-0.3-0.4c-0.1-0.1-0.6-0.1-1-0.3l0.1-0.4
				h5.4c1.2,0,2,0.1,2.6,0.4C312.5,434.5,312.8,435.1,312.8,435.7z M309.9,436.7c0.1-0.3,0.1-0.6,0.1-1s-0.1-0.7-0.4-1
				s-0.7-0.3-1.3-0.3h-0.4l-1,3.9h0.4c0.4,0,0.9,0,1.3-0.1c0.3-0.1,0.6-0.3,0.9-0.6C309.6,437.3,309.8,437,309.9,436.7z"/>
			<path fill="#20344E" d="M325.4,439.8l-0.9,2.8h-9.1l0.1-0.4c0.1,0,0.3,0,0.6,0s0.4,0,0.6-0.1c0.1,0,0.3-0.1,0.4-0.3
				s0.1-0.3,0.1-0.4l1.6-6.1c0-0.1,0-0.1,0-0.1v-0.1c0-0.1-0.1-0.3-0.3-0.4c-0.1-0.1-0.6-0.1-1-0.3l0.1-0.4h5.4l-0.1,0.4
				c-0.1,0-0.3,0-0.6,0c-0.3,0-0.4,0-0.6,0.1c-0.1,0-0.3,0.1-0.4,0.3s-0.1,0.3-0.1,0.4l-1.5,5.8c0,0.1,0,0.3-0.1,0.3s0,0.1,0,0.3
				c0,0.3,0.1,0.4,0.3,0.4s0.6,0.1,1.2,0.1c0.4,0,0.7,0,1.2-0.1c0.4,0,0.6-0.1,0.9-0.3c0.3-0.1,0.6-0.4,1-0.9c0.3-0.4,0.6-0.7,0.9-1
				h0.4V439.8z"/>
			<path fill="#20344E" d="M338.8,439.8l-0.9,2.8h-9.1l0.1-0.4c0.1,0,0.3,0,0.6,0s0.4,0,0.6-0.1c0.1,0,0.3-0.1,0.4-0.3
				s0.1-0.3,0.1-0.4l1.6-6.1c0-0.1,0-0.1,0-0.1v-0.1c0-0.1-0.1-0.3-0.3-0.4c-0.1-0.1-0.6-0.1-1-0.3l0.1-0.4h5.4l-0.1,0.4
				c-0.1,0-0.3,0-0.6,0s-0.4,0-0.6,0.1c-0.1,0-0.3,0.1-0.4,0.3s-0.1,0.3-0.1,0.4l-1.5,5.8c0,0.1,0,0.3-0.1,0.3c0,0.1,0,0.1,0,0.3
				c0,0.3,0.1,0.4,0.3,0.4s0.6,0.1,1.2,0.1c0.4,0,0.7,0,1.2-0.1c0.4,0,0.6-0.1,0.9-0.3c0.3-0.1,0.6-0.4,1-0.9c0.3-0.4,0.6-0.7,0.9-1
				h0.4V439.8z"/>
			<path fill="#20344E" d="M347.5,442.7c-0.6,0-1.2-0.1-1.7-0.3c-0.6-0.1-1-0.4-1.5-0.7s-0.7-0.7-0.9-1.2c-0.1-0.4-0.3-1-0.3-1.5
				c0-0.7,0.1-1.5,0.4-2.2c0.3-0.7,0.7-1.3,1.3-1.7c0.6-0.4,1.2-0.9,2-1.2c0.7-0.3,1.6-0.4,2.5-0.4c0.6,0,1,0,1.6,0.1s1,0.3,1.3,0.4
				l0.6-0.3h0.6l-0.7,3.2h-0.6c-0.1-0.9-0.4-1.6-0.9-2c-0.4-0.4-1-0.7-1.7-0.7c-0.6,0-1,0.1-1.5,0.4c-0.4,0.3-0.9,0.7-1.2,1.3
				c-0.3,0.4-0.4,1-0.7,1.6c-0.1,0.6-0.3,1.2-0.3,1.7c0,0.9,0.3,1.5,0.7,1.9c0.4,0.4,1,0.7,1.7,0.7s1.3-0.1,1.9-0.4
				c0.6-0.3,1.2-0.7,1.6-1.5l0.6,0.3c-0.3,0.3-0.4,0.6-0.9,0.9c-0.3,0.3-0.7,0.6-1,0.7c-0.4,0.3-0.9,0.4-1.3,0.6
				C348.7,442.7,348.1,442.7,347.5,442.7z"/>
		</g>
	</g>
	<rect x="252.1" y="438.6" fill="#20344E" width="37.6" height="1.6"/>
	<rect x="364.2" y="438.6" fill="#20344E" width="37.6" height="1.6"/>
	<g>
		<g>
			<path fill="#20344E" d="M302.6,120.1c0.4-0.1,0.9-0.4,1.5-0.6c0.6-0.1,1.2-0.1,1.9-0.1c1.3,0,2.3,0.1,3.2,0.6
				c0.7,0.4,1.2,1,1.2,1.7c0,0.4-0.1,0.9-0.4,1.2c-0.3,0.3-0.6,0.6-1.2,0.9c-0.4,0.1-1,0.4-1.7,0.6c-0.7,0.1-1.5,0.3-2.3,0.4
				c-0.4,0.1-1,0.1-1.5,0.3c-0.4,0.1-0.9,0.3-1.2,0.4v0.1h7.4l-0.6,2h-9.4l0.4-1.5c0.1-0.1,0.4-0.3,0.7-0.4c0.3-0.1,0.6-0.3,0.9-0.4
				c0.4-0.1,0.7-0.4,1.2-0.6c0.4-0.1,0.7-0.3,1-0.4c0.7-0.3,1.3-0.6,1.7-0.7c0.4-0.1,0.7-0.4,1-0.6c0.3-0.3,0.4-0.6,0.6-0.7
				c0.1-0.3,0.1-0.6,0.1-0.9c0-0.4-0.1-0.9-0.4-1c-0.3-0.3-0.7-0.3-1.2-0.3c-0.3,0-0.6,0-0.9,0.1c-0.1,0-0.4,0.1-0.6,0.1
				c0.1,0.1,0.1,0.4,0.3,0.6c0.1,0.1,0.1,0.4,0.1,0.7c0,0.3-0.1,0.7-0.4,0.9c-0.3,0.3-0.7,0.3-1.2,0.3c-0.4,0-0.7-0.1-1-0.4
				s-0.4-0.6-0.4-0.9c0-0.3,0.1-0.6,0.3-0.9C301.9,120.7,302.2,120.4,302.6,120.1z"/>
			<path fill="#20344E" d="M325.3,120.4c0.3,0.3,0.6,0.7,0.9,1c0.1,0.4,0.3,0.9,0.3,1.3c0,0.7-0.1,1.5-0.6,2.2
				c-0.3,0.7-0.9,1.2-1.5,1.7c-0.6,0.4-1.3,0.9-2,1.2c-0.7,0.3-1.6,0.4-2.6,0.4c-0.7,0-1.5-0.1-2-0.3c-0.6-0.1-1-0.4-1.5-0.7
				c-0.4-0.3-0.6-0.6-0.9-1c-0.1-0.4-0.3-0.9-0.3-1.3c0-0.7,0.1-1.3,0.4-2c0.3-0.7,0.7-1.2,1.3-1.7c0.6-0.4,1.3-0.9,2-1.2
				c0.9-0.3,1.7-0.4,2.8-0.4c0.7,0,1.5,0.1,2,0.3C324.4,120,324.9,120.1,325.3,120.4z M322.4,125.6c0.3-0.6,0.6-1.2,0.7-1.7
				c0.1-0.6,0.3-1.3,0.3-2c0-0.3,0-0.6-0.1-0.7c0-0.1-0.1-0.4-0.3-0.6c-0.1-0.1-0.3-0.3-0.4-0.4c-0.1-0.1-0.4-0.1-0.7-0.1
				c-0.4,0-0.9,0.1-1.3,0.4c-0.4,0.3-0.7,0.7-1.2,1.5c-0.3,0.6-0.4,1.2-0.6,1.7c-0.1,0.6-0.1,1.3-0.1,1.9c0,0.3,0,0.6,0.1,0.7
				c0,0.1,0.1,0.4,0.3,0.6s0.3,0.3,0.4,0.4c0.1,0.1,0.4,0.1,0.7,0.1c0.4,0,0.9-0.1,1.3-0.4C321.7,126.7,322.1,126.2,322.4,125.6z"/>
			<path fill="#20344E" d="M341.3,120.4c0.3,0.3,0.6,0.7,0.9,1c0.1,0.4,0.3,0.9,0.3,1.3c0,0.7-0.1,1.5-0.6,2.2
				c-0.3,0.7-0.9,1.2-1.5,1.7c-0.6,0.4-1.3,0.9-2,1.2c-0.7,0.3-1.6,0.4-2.6,0.4c-0.7,0-1.5-0.1-2-0.3c-0.6-0.1-1-0.4-1.5-0.7
				c-0.4-0.3-0.6-0.6-0.9-1c-0.1-0.4-0.3-0.9-0.3-1.3c0-0.7,0.1-1.3,0.4-2c0.3-0.7,0.7-1.2,1.3-1.7c0.6-0.4,1.3-0.9,2-1.2
				c0.9-0.3,1.7-0.4,2.8-0.4c0.7,0,1.5,0.1,2,0.3C340.5,120,341,120.1,341.3,120.4z M338.4,125.6c0.3-0.6,0.6-1.2,0.7-1.7
				c0.1-0.6,0.3-1.3,0.3-2c0-0.3,0-0.6-0.1-0.7c0-0.1-0.1-0.4-0.3-0.6c-0.1-0.1-0.3-0.3-0.4-0.4c-0.1-0.1-0.4-0.1-0.7-0.1
				c-0.4,0-0.9,0.1-1.3,0.4c-0.4,0.3-0.7,0.7-1.2,1.5c-0.3,0.6-0.4,1.2-0.6,1.7c-0.1,0.6-0.1,1.3-0.1,1.9c0,0.3,0,0.6,0.1,0.7
				c0.1,0.1,0.1,0.4,0.3,0.6c0.1,0.1,0.3,0.3,0.4,0.4c0.1,0.1,0.4,0.1,0.7,0.1c0.4,0,0.9-0.1,1.3-0.4
				C337.8,126.7,338.1,126.2,338.4,125.6z"/>
			<path fill="#20344E" d="M353.6,127.8h-7.1l0.1-0.6c0.1,0,0.4,0,0.9-0.1c0.4,0,0.7-0.1,0.9-0.1s0.3-0.1,0.4-0.3s0.3-0.3,0.3-0.4
				l1.3-4.9h-2.2l0.1-0.7h0.3c0.4,0,1,0,1.5-0.1c0.4-0.1,0.7-0.1,1-0.3s0.6-0.3,0.9-0.4c0.3-0.1,0.4-0.3,0.6-0.4h1.6
				c-0.1,0.4-0.3,0.7-0.4,1.2s-0.3,0.7-0.3,1.2l-1.2,4.4v0.1c0,0.1,0,0.1,0,0.1c0,0.1,0,0.3,0.1,0.3c0,0.1,0.1,0.1,0.3,0.1
				s0.3,0.1,0.7,0.1c0.3,0,0.6,0.1,0.7,0.1L353.6,127.8z"/>
		</g>
	</g>
	<rect x="252.1" y="121.6" fill="#20344E" width="37.6" height="1.6"/>
	<rect x="364.2" y="121.6" fill="#20344E" width="37.6" height="1.6"/>
</g>
</svg>
